<svg width="41" height="33" viewBox="0 0 41 33" fill="none" xmlns="http://www.w3.org/2000/svg">
<path d="M20.4999 6.77241L35.1223 18.8271C35.1223 18.8441 35.1266 18.8691 35.1352 18.9033C35.1435 18.9371 35.148 18.9617 35.148 18.9791V31.1858C35.148 31.6265 34.9869 32.0085 34.6647 32.3301C34.3426 32.6519 33.9612 32.8139 33.5204 32.8139H23.7553V23.0483H17.2444V32.8142H7.47943C7.0387 32.8142 6.65675 32.6526 6.33511 32.3301C6.01294 32.0088 5.85127 31.6266 5.85127 31.1858V18.9791C5.85127 18.9114 5.86054 18.8603 5.87692 18.8271L20.4999 6.77241Z" fill="#091133"/>
<path d="M0.282806 16.0804L5.85181 11.452V1.0762C5.85181 0.838996 5.92806 0.643926 6.08108 0.491255C6.23286 0.338762 6.42793 0.262516 6.66567 0.262516H11.5483C11.7857 0.262516 11.9807 0.338762 12.1335 0.491255C12.2859 0.643926 12.362 0.839085 12.362 1.0762V6.03515L18.567 0.847101C19.109 0.40628 19.7533 0.185913 20.4994 0.185913C21.2454 0.185913 21.8896 0.40628 22.4321 0.847101L40.7174 16.0804C40.8869 16.2158 40.9798 16.3981 40.9971 16.627C41.0142 16.8557 40.955 17.0555 40.8192 17.2249L39.2425 19.1069C39.1067 19.2594 38.9289 19.3526 38.7084 19.3867C38.5049 19.4038 38.3014 19.3443 38.0978 19.2088L20.4999 4.53472L2.90181 19.2087C2.76589 19.327 2.58819 19.386 2.36773 19.386H2.29131C2.07121 19.3525 1.89378 19.2587 1.75723 19.1065L0.180373 17.2249C0.044804 17.0551 -0.0146073 16.8556 0.0030291 16.6266C0.0203983 16.3983 0.113657 16.2161 0.282806 16.0804Z" fill="#091133"/>
</svg>
