<svg width="24" height="25" viewBox="0 0 24 25" fill="none" xmlns="http://www.w3.org/2000/svg">
<path fill-rule="evenodd" clip-rule="evenodd" d="M11.0624 1.50431C11.061 1.4824 11.0603 1.46028 11.0603 1.43799C11.0603 0.884278 11.5098 0.434692 12.0636 0.434692C12.6173 0.434692 13.0668 0.884278 13.0668 1.43799C13.0668 1.46028 13.0661 1.4824 13.0647 1.50431C17.1305 2.04682 20.2845 5.85081 20.2846 10.4565C20.2846 15.632 21.552 20.2364 23.5155 23.159H13.718C13.718 24.0723 12.9767 24.8136 12.0636 24.8136C11.1504 24.8136 10.4091 24.0723 10.4091 23.159H0.611694C2.57524 20.2364 3.84254 15.632 3.84254 10.4565C3.84254 5.85081 6.99657 2.04682 11.0624 1.50431Z" fill="#D9D9D9"/>
</svg>
