<svg width="38" height="35" viewBox="0 0 38 35" fill="none" xmlns="http://www.w3.org/2000/svg">
<g clip-path="url(#clip0_4_34)">
<path d="M11.738 17.5C9.60021 17.5651 7.85172 18.3984 6.49251 20H3.84008C2.758 20 1.84746 19.7363 1.10848 19.209C0.369493 18.6816 0 17.9102 0 16.8945C0 12.2982 0.818162 10 2.45449 10C2.53366 10 2.82068 10.1367 3.31554 10.4102C3.81039 10.6836 4.45371 10.9603 5.24547 11.2402C6.03724 11.5202 6.82242 11.6602 7.60099 11.6602C8.48513 11.6602 9.36268 11.5104 10.2336 11.2109C10.1676 11.6927 10.1347 12.1224 10.1347 12.5C10.1347 14.3099 10.6691 15.9766 11.738 17.5ZM32.9376 29.9414C32.9376 31.5039 32.456 32.7376 31.4926 33.6426C30.5293 34.5475 29.2493 35 27.6526 35H10.3524C8.75565 35 7.47563 34.5475 6.51231 33.6426C5.54899 32.7376 5.06733 31.5039 5.06733 29.9414C5.06733 29.2513 5.09042 28.5775 5.13661 27.9199C5.18279 27.2624 5.27517 26.5527 5.41373 25.791C5.55229 25.0293 5.72713 24.3229 5.93827 23.6719C6.14941 23.0208 6.43313 22.3861 6.78943 21.7676C7.14572 21.1491 7.5548 20.6217 8.01667 20.1855C8.47853 19.7493 9.04267 19.401 9.70908 19.1406C10.3755 18.8802 11.1112 18.75 11.9161 18.75C12.0481 18.75 12.3318 18.89 12.7673 19.1699C13.2028 19.4499 13.6844 19.7624 14.2123 20.1074C14.7401 20.4525 15.4461 20.765 16.3303 21.0449C17.2144 21.3249 18.1051 21.4648 19.0025 21.4648C19.8998 21.4648 20.7906 21.3249 21.6747 21.0449C22.5588 20.765 23.2648 20.4525 23.7927 20.1074C24.3205 19.7624 24.8022 19.4499 25.2377 19.1699C25.6731 18.89 25.9569 18.75 26.0888 18.75C26.8938 18.75 27.6295 18.8802 28.2959 19.1406C28.9623 19.401 29.5264 19.7493 29.9883 20.1855C30.4501 20.6217 30.8592 21.1491 31.2155 21.7676C31.5718 22.3861 31.8555 23.0208 32.0667 23.6719C32.2778 24.3229 32.4527 25.0293 32.5912 25.791C32.7298 26.5527 32.8222 27.2624 32.8683 27.9199C32.9145 28.5775 32.9376 29.2513 32.9376 29.9414ZM12.6683 5C12.6683 6.38021 12.1735 7.55859 11.1837 8.53516C10.194 9.51172 8.99978 10 7.60099 10C6.2022 10 5.00794 9.51172 4.01823 8.53516C3.02852 7.55859 2.53366 6.38021 2.53366 5C2.53366 3.61979 3.02852 2.44141 4.01823 1.46484C5.00794 0.488281 6.2022 2.27865e-08 7.60099 0C8.99978 -2.27865e-08 10.194 0.488281 11.1837 1.46484C12.1735 2.44141 12.6683 3.61979 12.6683 5ZM26.6035 12.5C26.6035 14.5703 25.8612 16.3379 24.3766 17.8027C22.892 19.2676 21.1007 20 19.0025 20C16.9043 20 15.1129 19.2676 13.6283 17.8027C12.1438 16.3379 11.4015 14.5703 11.4015 12.5C11.4015 10.4297 12.1438 8.66211 13.6283 7.19727C15.1129 5.73242 16.9043 5 19.0025 5C21.1007 5 22.892 5.73242 24.3766 7.19727C25.8612 8.66211 26.6035 10.4297 26.6035 12.5ZM38.0049 16.8945C38.0049 17.9102 37.6355 18.6816 36.8965 19.209C36.1575 19.7363 35.247 20 34.1649 20H31.5124C30.1532 18.3984 28.4047 17.5651 26.267 17.5C27.3359 15.9766 27.8703 14.3099 27.8703 12.5C27.8703 12.1224 27.8373 11.6927 27.7713 11.2109C28.6423 11.5104 29.5198 11.6602 30.404 11.6602C31.1825 11.6602 31.9677 11.5202 32.7595 11.2402C33.5512 10.9603 34.1946 10.6836 34.6894 10.4102C35.1843 10.1367 35.4713 10 35.5505 10C37.1868 10 38.0049 12.2982 38.0049 16.8945ZM35.4713 5C35.4713 6.38021 34.9764 7.55859 33.9867 8.53516C32.997 9.51172 31.8028 10 30.404 10C29.0052 10 27.8109 9.51172 26.8212 8.53516C25.8315 7.55859 25.3366 6.38021 25.3366 5C25.3366 3.61979 25.8315 2.44141 26.8212 1.46484C27.8109 0.488281 29.0052 2.27865e-08 30.404 0C31.8028 -2.27865e-08 32.997 0.488281 33.9867 1.46484C34.9764 2.44141 35.4713 3.61979 35.4713 5Z" fill="#091133"/>
</g>
<defs>
<clipPath id="clip0_4_34">
<rect width="38" height="35" fill="white"/>
</clipPath>
</defs>
</svg>
