<svg width="36" height="34" viewBox="0 0 36 34" fill="none" xmlns="http://www.w3.org/2000/svg">
<path d="M35.8125 7.50002V8.68752C35.8125 8.84499 35.7499 8.99602 35.6386 9.10737C35.5272 9.21872 35.3762 9.28127 35.2188 9.28127H33.4375V10.1719C33.4375 10.6637 33.0387 11.0625 32.5469 11.0625H3.45312C2.96128 11.0625 2.5625 10.6637 2.5625 10.1719V9.28127H0.78125C0.623778 9.28127 0.472755 9.21872 0.361405 9.10737C0.250056 8.99602 0.1875 8.84499 0.1875 8.68752V7.50002C0.187501 7.38255 0.222344 7.26773 0.287621 7.17007C0.352898 7.07241 0.445676 6.99631 0.554215 6.9514L17.773 0.420145C17.9183 0.359952 18.0817 0.359952 18.227 0.420145L35.4458 6.9514C35.5543 6.99631 35.6471 7.07241 35.7124 7.17007C35.7777 7.26773 35.8125 7.38255 35.8125 7.50002ZM34.0312 30.0625H1.96875C0.98498 30.0625 0.1875 30.86 0.1875 31.8438V33.0313C0.1875 33.1887 0.250056 33.3398 0.361405 33.4511C0.472755 33.5625 0.623778 33.625 0.78125 33.625H35.2188C35.3762 33.625 35.5272 33.5625 35.6386 33.4511C35.7499 33.3398 35.8125 33.1887 35.8125 33.0313V31.8438C35.8125 30.86 35.015 30.0625 34.0312 30.0625ZM6.125 12.25V26.5H3.45312C2.96128 26.5 2.5625 26.8988 2.5625 27.3906V28.875H33.4375V27.3906C33.4375 26.8988 33.0387 26.5 32.5469 26.5H29.875V12.25H25.125V26.5H20.375V12.25H15.625V26.5H10.875V12.25H6.125Z" fill="#091133"/>
</svg>
