<svg width="29" height="34" viewBox="0 0 29 34" fill="none" xmlns="http://www.w3.org/2000/svg">
<path d="M13 21.1666V33.8333H0.333313C0.333313 32.1699 0.660946 30.5228 1.29751 28.986C1.93407 27.4492 2.86709 26.0528 4.04329 24.8766C5.2195 23.7004 6.61586 22.7674 8.15266 22.1308C9.68945 21.4943 11.3366 21.1666 13 21.1666ZM13 19.5833C7.75123 19.5833 3.49998 15.3321 3.49998 10.0833C3.49998 4.83456 7.75123 0.583313 13 0.583313C18.2487 0.583313 22.5 4.83456 22.5 10.0833C22.5 15.3321 18.2487 19.5833 13 19.5833ZM27.25 25.9166H28.8333V33.8333H16.1666V25.9166H17.75V24.3333C17.75 23.0735 18.2504 21.8654 19.1412 20.9746C20.032 20.0838 21.2402 19.5833 22.5 19.5833C23.7598 19.5833 24.9679 20.0838 25.8587 20.9746C26.7495 21.8654 27.25 23.0735 27.25 24.3333V25.9166ZM24.0833 25.9166V24.3333C24.0833 23.9134 23.9165 23.5107 23.6196 23.2137C23.3226 22.9168 22.9199 22.75 22.5 22.75C22.0801 22.75 21.6773 22.9168 21.3804 23.2137C21.0835 23.5107 20.9166 23.9134 20.9166 24.3333V25.9166H24.0833Z" fill="#091133"/>
</svg>
