<svg width="32" height="33" viewBox="0 0 32 33" fill="none" xmlns="http://www.w3.org/2000/svg">
<path d="M6.875 8.28125C6.875 10.3284 7.68822 12.2917 9.13577 13.7392C10.5833 15.1868 12.5466 16 14.5938 16C16.6409 16 18.6042 15.1868 20.0517 13.7392C21.4993 12.2917 22.3125 10.3284 22.3125 8.28125C22.3125 6.23411 21.4993 4.27082 20.0517 2.82327C18.6042 1.37572 16.6409 0.5625 14.5938 0.5625C12.5466 0.5625 10.5833 1.37572 9.13577 2.82327C7.68822 4.27082 6.875 6.23411 6.875 8.28125Z" fill="#091133"/>
<path d="M18.4769 18.375C17.1294 18.0133 15.7395 17.8336 14.3444 17.8406C1.04438 17.8406 0.640625 32.0906 0.640625 32.0906H17.8C16.9173 31.1591 16.2325 30.0583 15.7869 28.8548C15.3414 27.6513 15.1443 26.37 15.2075 25.0882C15.2708 23.8064 15.5931 22.5507 16.155 21.3969C16.7169 20.2431 17.5067 19.2151 18.4769 18.375Z" fill="#091133"/>
<path d="M24.6875 18.375C23.2783 18.375 21.9008 18.7929 20.7291 19.5758C19.5574 20.3587 18.6441 21.4715 18.1049 22.7734C17.5656 24.0753 17.4245 25.5079 17.6994 26.89C17.9743 28.2721 18.6529 29.5417 19.6494 30.5381C20.6458 31.5346 21.9154 32.2132 23.2975 32.4881C24.6796 32.763 26.1122 32.6219 27.4141 32.0826C28.716 31.5434 29.8288 30.6301 30.6117 29.4584C31.3946 28.2867 31.8125 26.9092 31.8125 25.5C31.8125 23.6103 31.0618 21.7981 29.7256 20.4619C28.3894 19.1257 26.5772 18.375 24.6875 18.375ZM23.785 30.1075H20.3412L20.2463 26.545L26.7894 20.0731L30.3519 23.5644L23.785 30.1075Z" fill="#091133"/>
<path d="M26.7894 22.84L22.1937 27.4L22.2175 28.2075L22.9894 28.1956L27.585 23.6356L26.7894 22.84Z" fill="#091133"/>
</svg>
