<svg width="195" height="38" viewBox="0 0 195 38" fill="none" xmlns="http://www.w3.org/2000/svg">
<path d="M17.831 18.5279L17.703 10.5279L15.047 9.69593L15.303 7.74393H23.623C23.6017 7.74393 23.6017 7.76527 23.623 7.80793C23.6657 7.8506 23.7084 7.9466 23.751 8.09593C23.815 8.22393 23.879 8.38393 23.943 8.57593C24.071 8.91726 24.1564 9.4826 24.199 10.2719C23.111 10.4426 22.3964 10.5493 22.055 10.5919L21.991 18.7199C21.9484 22.7946 21.2017 25.7813 19.751 27.6799C18.3217 29.5786 15.8684 30.5279 12.391 30.5279C8.91369 30.5279 6.49235 29.6426 5.12702 27.8719C3.76168 26.1013 3.05769 23.2426 3.01502 19.2959C2.97235 15.3279 2.92968 12.4053 2.88702 10.5279L0.231018 9.69593L0.487018 7.74393H8.80702C8.78569 7.74393 8.78569 7.76527 8.80702 7.80793C8.84969 7.8506 8.89235 7.9466 8.93502 8.09593C8.99902 8.22393 9.06302 8.38393 9.12702 8.57593C9.25502 8.91726 9.34035 9.4826 9.38302 10.2719C8.29502 10.4426 7.58035 10.5493 7.23902 10.5919L7.14302 18.7199C7.14302 21.0879 7.27102 22.7733 7.52702 23.7759C7.78302 24.7573 8.10302 25.4506 8.48702 25.8559C9.31902 26.7093 10.6417 27.1359 12.455 27.1359C14.2044 27.1359 15.527 26.6453 16.423 25.6639C17.1484 24.8746 17.5857 23.4879 17.735 21.5039C17.799 20.7146 17.831 19.7226 17.831 18.5279Z" fill="white"/>
<path d="M35.236 13.5039C37.3694 13.5039 38.916 14.0266 39.876 15.0719C40.836 16.1173 41.316 17.5786 41.316 19.4559C41.316 21.3333 41.2094 23.8719 40.996 27.0719L43.524 27.3599C43.524 28.2346 43.2787 29.1626 42.788 30.1439H34.82L34.532 28.3839C35.5347 27.9786 36.4627 27.6586 37.316 27.4239C37.252 24.9706 37.188 22.9119 37.124 21.2479C37.06 19.5626 36.9 18.4213 36.644 17.8239C36.388 17.2266 35.8227 16.9279 34.948 16.9279C33.6254 16.9279 32.4414 17.1626 31.396 17.6319C31.3747 18.5493 31.3107 20.0533 31.204 22.1439C31.1187 24.2133 31.0654 25.8559 31.044 27.0719L33.54 27.3599C33.54 28.2346 33.2947 29.1626 32.804 30.1439H24.836L24.548 28.3839C25.6147 27.9786 26.5747 27.6586 27.428 27.4239C27.4067 26.1439 27.332 24.3733 27.204 22.1119C27.0974 19.8506 27.0334 18.1759 27.012 17.0879C26.2227 17.0026 25.38 16.8426 24.484 16.6079L24.644 14.3039C26.1374 13.8986 27.8227 13.6959 29.7 13.6959C29.9347 13.8453 30.2547 14.3039 30.66 15.0719C31.3854 14.7093 32.2707 14.3573 33.316 14.0159C34.3614 13.6746 35.0014 13.5039 35.236 13.5039Z" fill="white"/>
<path d="M50.9548 13.7599C51.3601 13.7599 51.6161 13.7706 51.7228 13.7919C51.7228 14.8373 51.5414 15.8079 51.1788 16.7039C51.0934 21.3119 51.0401 24.7679 51.0188 27.0719L53.5148 27.3599C53.5148 28.2346 53.2694 29.1626 52.7788 30.1439H44.8108L44.5228 28.3839C45.8454 27.8933 46.8054 27.5733 47.4028 27.4239L47.0508 17.0559C45.7921 16.9279 44.8641 16.7679 44.2668 16.5759C44.2668 16.0426 44.3414 15.2746 44.4908 14.2719C45.7494 13.9306 47.9041 13.7599 50.9548 13.7599ZM50.9548 7.71193C51.1468 8.67193 51.2428 9.40793 51.2428 9.91993C51.2428 10.4106 51.2001 10.9653 51.1148 11.5839C50.2614 11.7759 49.5361 11.8719 48.9388 11.8719C48.3628 11.8719 47.6588 11.8399 46.8268 11.7759C46.6348 10.8159 46.5388 10.0906 46.5388 9.59993C46.5388 9.08793 46.5814 8.5226 46.6668 7.90393C47.5201 7.71193 48.2348 7.61593 48.8108 7.61593C49.4081 7.61593 50.1228 7.64793 50.9548 7.71193Z" fill="white"/>
<path d="M65.0865 24.1599C65.4705 22.8373 66.8999 18.3039 69.3745 10.5599L66.5265 9.69593L66.7825 7.74393H75.0705C75.4545 8.51193 75.6572 9.3546 75.6785 10.2719L73.6945 10.5599L67.3265 30.1439H63.0705L56.1905 10.5599L53.3425 9.69593L53.5985 7.74393H61.8865C62.2705 8.51193 62.4732 9.3546 62.4945 10.2719C61.5772 10.4213 60.9479 10.5173 60.6065 10.5599L65.0865 24.1599Z" fill="white"/>
<path d="M84.1233 27.3919C84.8486 27.3919 86.3206 26.8906 88.5393 25.8879C89.0086 26.5706 89.3606 27.3599 89.5953 28.2559C88.4219 28.9813 87.2699 29.5466 86.1393 29.9519C85.0299 30.3359 84.2406 30.5279 83.7713 30.5279C81.1899 30.5279 79.2273 29.8133 77.8833 28.3839C76.5606 26.9546 75.8993 24.9279 75.8993 22.3039C75.8993 19.6586 76.5606 17.5359 77.8833 15.9359C79.2059 14.3146 81.1686 13.5039 83.7713 13.5039C85.8406 13.5039 87.4193 14.1759 88.5073 15.5199C89.5953 16.8639 90.1393 18.6133 90.1393 20.7679C90.1393 21.2159 89.8833 21.7279 89.3713 22.3039L80.1553 22.1439C80.1979 23.8506 80.5179 25.1519 81.1153 26.0479C81.7126 26.9439 82.7153 27.3919 84.1233 27.3919ZM83.4833 16.1599C82.6726 16.1599 81.9153 16.3199 81.2113 16.6399C80.7206 17.6639 80.4113 18.6133 80.2833 19.4879C81.9473 19.4239 83.8353 19.3813 85.9473 19.3599C85.8406 17.2266 85.0193 16.1599 83.4833 16.1599Z" fill="white"/>
<path d="M101.426 16.9599C101.384 16.8533 101.17 16.7999 100.786 16.7999C100.402 16.7999 99.7409 17.0879 98.8023 17.6639C98.7169 21.8453 98.6636 24.9813 98.6423 27.0719L101.138 27.3919C101.138 28.3093 100.893 29.2266 100.402 30.1439H92.4343L92.1463 28.3839C93.4689 27.8933 94.4289 27.5733 95.0263 27.4239L94.6743 17.0559C93.5649 16.9706 92.6369 16.8106 91.8903 16.5759L92.1143 14.2719C92.6903 14.0159 94.7703 13.8453 98.3543 13.7599C98.5463 13.9519 98.6423 14.3253 98.6423 14.8799C100.52 13.9626 101.704 13.5039 102.194 13.5039C102.706 13.5039 103.325 13.6319 104.05 13.8879C104.797 14.1226 105.362 14.3786 105.746 14.6559V15.1999C105.746 16.9493 105.533 18.5706 105.106 20.0639C104.744 20.2133 104.264 20.2879 103.666 20.2879C103.069 20.2879 102.514 20.2559 102.002 20.1919C101.938 19.9146 101.746 18.8373 101.426 16.9599Z" fill="white"/>
<path d="M118.137 14.8799L118.169 15.8719C118.169 17.5359 118.041 18.6239 117.785 19.1359C117.081 19.3919 116.1 19.5199 114.841 19.5199L113.817 16.2879C113.54 16.1813 113.156 16.1279 112.665 16.1279C112.175 16.1279 111.769 16.2773 111.449 16.5759C111.151 16.8746 111.001 17.2266 111.001 17.6319C111.001 18.0373 111.161 18.4106 111.481 18.7519C111.801 19.0719 112.132 19.3279 112.473 19.5199C112.815 19.7119 113.305 19.9679 113.945 20.2879C114.607 20.5866 115.097 20.8213 115.417 20.9919C115.759 21.1626 116.185 21.4186 116.697 21.7599C117.231 22.1013 117.636 22.4213 117.913 22.7199C118.596 23.5306 118.937 24.4159 118.937 25.3759C118.937 27.0186 118.308 28.2879 117.049 29.1839C115.812 30.0799 114.287 30.5279 112.473 30.5279C111.513 30.5279 110.457 30.3573 109.305 30.0159C108.175 29.6746 107.215 29.2159 106.425 28.6399C106.425 27.1039 106.575 25.6746 106.873 24.3519C107.727 24.2453 108.42 24.1919 108.953 24.1919C109.487 24.1919 109.849 24.2026 110.041 24.2239L110.425 27.3279C110.959 27.5199 111.599 27.6159 112.345 27.6159C113.092 27.6159 113.679 27.4666 114.105 27.1679C114.553 26.8693 114.777 26.4533 114.777 25.9199C114.777 25.3653 114.532 24.9066 114.041 24.5439C113.551 24.1813 112.879 23.8079 112.025 23.4239C111.172 23.0186 110.511 22.6879 110.041 22.4319C109.572 22.1546 109.071 21.8026 108.537 21.3759C107.449 20.5439 106.905 19.5199 106.905 18.3039C106.905 16.7893 107.428 15.6159 108.473 14.7839C109.54 13.9306 110.969 13.5039 112.761 13.5039C114.553 13.5039 116.345 13.9626 118.137 14.8799Z" fill="white"/>
<path d="M129.342 27.3919C130.067 27.3919 131.539 26.8906 133.758 25.8879C134.227 26.5706 134.579 27.3599 134.814 28.2559C133.641 28.9813 132.489 29.5466 131.358 29.9519C130.249 30.3359 129.459 30.5279 128.99 30.5279C126.409 30.5279 124.446 29.8133 123.102 28.3839C121.779 26.9546 121.118 24.9279 121.118 22.3039C121.118 19.6586 121.779 17.5359 123.102 15.9359C124.425 14.3146 126.387 13.5039 128.99 13.5039C131.059 13.5039 132.638 14.1759 133.726 15.5199C134.814 16.8639 135.358 18.6133 135.358 20.7679C135.358 21.2159 135.102 21.7279 134.59 22.3039L125.374 22.1439C125.417 23.8506 125.737 25.1519 126.334 26.0479C126.931 26.9439 127.934 27.3919 129.342 27.3919ZM128.702 16.1599C127.891 16.1599 127.134 16.3199 126.43 16.6399C125.939 17.6639 125.63 18.6133 125.502 19.4879C127.166 19.4239 129.054 19.3813 131.166 19.3599C131.059 17.2266 130.238 16.1599 128.702 16.1599Z" fill="white"/>
<path d="M151.477 14.9759L150.485 14.9439L149.557 11.1039C148.32 10.8906 147.392 10.7839 146.773 10.7839C145.557 10.7839 144.192 11.0293 142.677 11.5199C142.229 12.3519 141.877 13.4186 141.621 14.7199C141.365 16.0213 141.237 17.2479 141.237 18.3999C141.237 24.2879 142.933 27.2319 146.325 27.2319C147.776 27.2319 148.928 27.0186 149.781 26.5919L150.453 22.6879C151.797 22.6879 152.821 22.7626 153.525 22.9119C153.866 25.2373 154.037 27.1253 154.037 28.5759C153.525 28.9599 152.49 29.3866 150.933 29.8559C149.397 30.3253 147.882 30.5599 146.389 30.5599C140.032 30.5599 136.853 26.6346 136.853 18.7839C136.853 15.0506 137.621 12.2133 139.157 10.2719C140.714 8.3306 143.189 7.35993 146.581 7.35993C148.266 7.35993 149.76 7.60527 151.061 8.09593C152.213 8.5226 153.194 8.99193 154.005 9.50393C154.005 10.9546 153.845 12.7039 153.525 14.7519C152.928 14.9013 152.245 14.9759 151.477 14.9759Z" fill="white"/>
<path d="M162.767 13.7599C163.173 13.7599 163.429 13.7706 163.535 13.7919C163.535 14.8373 163.354 15.8079 162.991 16.7039C162.906 21.3119 162.853 24.7679 162.831 27.0719L165.327 27.3599C165.327 28.2346 165.082 29.1626 164.591 30.1439H156.623L156.335 28.3839C157.658 27.8933 158.618 27.5733 159.215 27.4239L158.863 17.0559C157.605 16.9279 156.677 16.7679 156.079 16.5759C156.079 16.0426 156.154 15.2746 156.303 14.2719C157.562 13.9306 159.717 13.7599 162.767 13.7599ZM162.767 7.71193C162.959 8.67193 163.055 9.40793 163.055 9.91993C163.055 10.4106 163.013 10.9653 162.927 11.5839C162.074 11.7759 161.349 11.8719 160.751 11.8719C160.175 11.8719 159.471 11.8399 158.639 11.7759C158.447 10.8159 158.351 10.0906 158.351 9.59993C158.351 9.08793 158.394 8.5226 158.479 7.90393C159.333 7.71193 160.047 7.61593 160.623 7.61593C161.221 7.61593 161.935 7.64793 162.767 7.71193Z" fill="white"/>
<path d="M169.827 30.5279L169.123 30.4959C168.995 30.2613 168.824 29.8239 168.611 29.1839C168.398 28.5439 168.28 28.0639 168.259 27.7439C168.152 25.6319 168.035 21.9733 167.907 16.7679H165.667L165.763 14.9439C166.254 14.6026 166.84 14.2933 167.523 14.0159L170.115 9.91993C170.947 10.0053 171.598 10.2293 172.067 10.5919L172.035 13.6319C173.379 13.6746 174.627 13.8026 175.779 14.0159C175.779 14.8693 175.512 15.7866 174.979 16.7679H172.003C171.918 21.2479 171.864 24.6079 171.843 26.8479C172.696 26.9333 173.859 27.1786 175.331 27.5839L175.299 29.2479C174.936 29.4826 174.126 29.7599 172.867 30.0799C171.63 30.3786 170.616 30.5279 169.827 30.5279Z" fill="white"/>
<path d="M181.496 37.8879C180.877 37.8879 180.195 37.7813 179.448 37.5679C178.701 37.3546 177.901 37.0346 177.048 36.6079C177.176 34.1546 177.293 32.6933 177.4 32.2239C178.211 32.0106 178.872 31.9039 179.384 31.9039C179.917 31.9039 180.259 31.9146 180.408 31.9359L181.432 35.1359L181.72 35.1039C182.211 35.0399 182.712 34.4533 183.224 33.3439C183.736 32.2346 184.109 31.1679 184.344 30.1439H183L178.264 16.9599L175.768 16.6719C175.768 15.7973 176.013 14.8693 176.504 13.8879H184.472L184.76 15.6479C183.885 16.0533 183.149 16.3306 182.552 16.4799L184.984 24.0639L185.272 25.4399H185.976L188.696 16.4799C187.971 16.3519 187.075 16.0746 186.008 15.6479L186.296 13.8879H194.264C194.755 14.8693 195 15.7973 195 16.6719C194.168 16.7999 193.336 16.8853 192.504 16.9279C190.584 22.5599 189.08 26.9119 187.992 29.9839C186.925 33.0559 185.955 35.1359 185.08 36.2239C184.205 37.3333 183.011 37.8879 181.496 37.8879Z" fill="white"/>
<path d="M139.146 1.96745C138.504 2.04961 139.326 1.24321 130.854 11.5874C130.815 11.635 130.766 11.6832 130.765 11.7548C130.787 11.8839 130.891 12.0449 131.027 12.0159C132.4 11.7825 133.772 11.5453 135.145 11.3106C134.647 12.5141 133.958 12.8003 134.166 13.5037C134.38 14.2548 135.292 14.6584 136.001 14.7751C136.736 16.4088 138.606 16.5959 138.691 19.0754C138.675 19.4527 139.096 19.4743 139.118 19.2317C139.159 18.4955 138.978 17.9197 138.972 17.8366C139.284 18.3623 139.387 18.5298 139.634 19.1819C139.732 19.3816 140.048 19.3024 140.031 19.0885C139.98 18.893 139.903 18.7036 139.833 18.5136C140.208 19.1823 140.08 19.2023 140.497 19.1799C141.001 19.1538 141.569 18.5206 141.356 18.2354C139.263 15.7078 138.04 15.5583 136.954 14.5701C136.063 13.7806 136.092 14.2028 135.368 13.8622C134.933 13.6588 134.793 13.3387 134.816 13.161C134.838 13.105 135.648 12.1722 135.869 11.1891C135.91 11.1796 135.951 11.1718 135.993 11.1641C136.069 11.9689 136.225 12.7739 136.462 13.5585C136.513 13.7518 136.726 13.8332 136.854 13.6718C139.683 10.1339 141.675 11.6335 144.134 9.55836C144.969 8.8555 146.044 7.19868 149.234 6.96108C149.435 6.93458 149.43 6.70209 149.337 6.5729C148.813 5.76051 148.151 5.04608 147.4 4.48301C148.505 3.11392 149.611 1.74475 150.715 0.374165C150.831 0.230114 150.644 -0.0388575 150.476 0.0047164C146.699 0.658788 142.923 1.31426 139.146 1.96745ZM142.211 1.67427C144.985 1.19559 147.758 0.710222 150.533 0.234666C149.428 1.60612 148.322 2.97639 147.216 4.34698C146.196 3.62439 144.571 3.00519 143.988 3.20192C143.823 3.24927 143.67 3.32672 143.508 3.38387C139.876 4.72443 136.237 7.57756 136.101 8.15288C136.065 8.30007 135.876 9.61663 135.973 10.9298C134.312 11.2177 132.649 11.4995 130.987 11.7866C133.585 8.61512 136.179 5.44062 138.779 2.27176C139.922 2.06741 141.067 1.87491 142.211 1.67427ZM144.228 3.38265C144.468 3.36802 147.308 3.7766 149.195 6.72991C145.863 6.96025 144.654 8.86531 143.816 9.52123C141.473 11.3779 139.424 10.0169 136.671 13.5367C135.926 11.1207 136.155 8.80252 136.351 8.13669C138.607 5.98131 141.299 4.3562 144.228 3.38265ZM135.635 11.2262C135.116 12.9333 133.989 13.0941 134.887 13.8133C135.332 14.1552 135.624 14.2329 135.918 14.2942C135.9 14.3679 135.907 14.4478 135.921 14.5253C135.466 14.449 134.998 14.2613 134.645 13.8986C133.999 13.2125 134.536 12.8068 134.865 12.3257C135.086 12.0077 135.266 11.6524 135.391 11.2704C135.472 11.2547 135.555 11.2439 135.635 11.2262ZM137.19 15.0796C137.305 15.1865 139.264 16.0237 141.196 18.3674C141.061 18.7444 140.731 18.99 140.288 18.9562C139.819 17.8958 139.058 16.971 138.151 16.3197C138.913 17.0744 139.506 18.0405 139.816 19.0858C139.492 18.1523 138.939 17.2889 138.224 16.6338C138.739 17.4404 138.936 18.2904 138.913 19.1774C138.79 18.4386 139.148 17.5308 136.683 15.504C136.583 15.3581 136.122 14.6327 136.123 14.3372C136.283 14.1877 136.992 14.8884 137.19 15.0796Z" fill="black"/>
<path d="M138.779 2.27176C136.179 5.44062 133.585 8.61512 130.987 11.7866C132.649 11.4995 134.312 11.2177 135.973 10.9298C135.921 10.2237 135.937 9.51937 136.018 8.83158C136.077 8.32844 136.041 8.11608 136.249 7.88003C136.329 7.7882 139.255 4.95363 143.508 3.38387C144.103 3.17345 144.061 3.07082 144.868 3.25369C145.686 3.47667 146.49 3.83267 147.216 4.34698C148.322 2.97639 149.428 1.60612 150.533 0.234666C148.785 0.534316 139.518 2.1396 138.779 2.27176Z" fill="#177EE8"/>
<path d="M136.351 8.13669C136.306 8.28712 135.784 10.6586 136.671 13.5367C139.418 10.0242 141.479 11.3734 143.816 9.52123C144.653 8.86588 145.864 6.96016 149.195 6.72991C148.041 4.92323 146.293 3.71806 144.376 3.40106C144.01 3.35196 139.909 4.73844 136.351 8.13669Z" fill="#177EE8"/>
<path d="M135.635 11.2262C135.555 11.2439 135.472 11.2547 135.391 11.2704C134.898 12.7813 133.801 13.002 134.645 13.8986C134.998 14.2613 135.466 14.449 135.921 14.5253C135.907 14.4478 135.9 14.3679 135.918 14.2942C135.626 14.2334 135.334 14.1568 134.887 13.8133C134.127 13.2048 134.818 12.979 135.356 11.9295C135.473 11.7094 135.561 11.4706 135.635 11.2262Z" fill="#177EE8"/>
<path d="M136.123 14.3372C136.122 14.6299 136.58 15.3534 136.683 15.504C139.098 17.49 138.772 18.3315 138.913 19.1774C138.936 18.2922 138.74 17.4418 138.224 16.6338C138.939 17.2889 139.492 18.1523 139.816 19.0858C139.506 18.0405 138.913 17.0744 138.151 16.3197C139.058 16.971 139.819 17.8958 140.288 18.9562C140.731 18.99 141.061 18.7444 141.196 18.3674C139.253 16.0102 137.321 15.2015 137.19 15.0796C136.968 14.8644 136.279 14.1914 136.123 14.3372Z" fill="#177EE8"/>
</svg>
