<svg width="38" height="38" viewBox="0 0 38 38" fill="none" xmlns="http://www.w3.org/2000/svg">
<path d="M19 0.59375C8.50403 0.59375 0 8.83203 0 19C0 29.168 8.50403 37.4062 19 37.4062C29.496 37.4062 38 29.168 38 19C38 8.83203 29.496 0.59375 19 0.59375ZM19 7.71875C22.7234 7.71875 25.7419 10.643 25.7419 14.25C25.7419 17.857 22.7234 20.7812 19 20.7812C15.2766 20.7812 12.2581 17.857 12.2581 14.25C12.2581 10.643 15.2766 7.71875 19 7.71875ZM19 33.25C14.5028 33.25 10.473 31.2758 7.77621 28.1883C9.21653 25.5609 12.0359 23.75 15.3226 23.75C15.5065 23.75 15.6903 23.7797 15.8665 23.8316C16.8625 24.1434 17.9044 24.3438 19 24.3438C20.0956 24.3438 21.1452 24.1434 22.1335 23.8316C22.3097 23.7797 22.4935 23.75 22.6774 23.75C25.9641 23.75 28.7835 25.5609 30.2238 28.1883C27.527 31.2758 23.4972 33.25 19 33.25Z" fill="#091133"/>
</svg>
